<svg width="110" height="110" viewBox="0 0 110 110" fill="none" xmlns="http://www.w3.org/2000/svg">
<path d="M106.541 35.793C107.229 37.6621 106.648 39.7461 105.166 41.0781L95.8633 49.543C96.0996 51.3262 96.2285 53.1523 96.2285 55C96.2285 56.8477 96.0996 58.6738 95.8633 60.457L105.166 68.9219C106.648 70.2539 107.229 72.3379 106.541 74.207C105.596 76.7637 104.457 79.2129 103.146 81.5762L102.137 83.3164C100.719 85.6797 99.1289 87.9141 97.3887 90.0195C96.1211 91.5664 94.0156 92.082 92.125 91.4805L80.1582 87.6777C77.2793 89.8906 74.0996 91.7383 70.7051 93.1348L68.0195 105.402C67.5898 107.357 66.0859 108.904 64.1094 109.227C61.1445 109.721 58.0937 109.979 54.9785 109.979C51.8633 109.979 48.8125 109.721 45.8476 109.227C43.8711 108.904 42.3672 107.357 41.9375 105.402L39.2519 93.1348C35.8574 91.7383 32.6777 89.8906 29.7988 87.6777L17.8535 91.502C15.9629 92.1035 13.8574 91.5664 12.5898 90.041C10.8496 87.9356 9.25976 85.7012 7.84179 83.3379L6.83203 81.5977C5.52148 79.2344 4.38281 76.7852 3.43749 74.2285C2.74999 72.3594 3.33007 70.2754 4.81249 68.9434L14.1152 60.4785C13.8789 58.6738 13.75 56.8477 13.75 55C13.75 53.1523 13.8789 51.3262 14.1152 49.543L4.81249 41.0781C3.33007 39.7461 2.74999 37.6621 3.43749 35.793C4.38281 33.2363 5.52148 30.7871 6.83203 28.4238L7.84179 26.6836C9.25976 24.3203 10.8496 22.0859 12.5898 19.9805C13.8574 18.4336 15.9629 17.918 17.8535 18.5195L29.8203 22.3223C32.6992 20.1094 35.8789 18.2617 39.2734 16.8652L41.959 4.59766C42.3887 2.64258 43.8926 1.0957 45.8691 0.773438C48.834 0.257812 51.8848 0 55 0C58.1152 0 61.166 0.257813 64.1309 0.751953C66.1074 1.07422 67.6113 2.62109 68.041 4.57617L70.7266 16.8438C74.1211 18.2402 77.3008 20.0879 80.1797 22.3008L92.1465 18.498C94.0371 17.8965 96.1426 18.4336 97.4102 19.959C99.1504 22.0645 100.74 24.2988 102.158 26.6621L103.168 28.4023C104.479 30.7656 105.617 33.2148 106.562 35.7715L106.541 35.793ZM55 72.1875C59.5584 72.1875 63.9301 70.3767 67.1534 67.1534C70.3767 63.9301 72.1875 59.5584 72.1875 55C72.1875 50.4416 70.3767 46.0699 67.1534 42.8466C63.9301 39.6233 59.5584 37.8125 55 37.8125C50.4416 37.8125 46.0699 39.6233 42.8466 42.8466C39.6233 46.0699 37.8125 50.4416 37.8125 55C37.8125 59.5584 39.6233 63.9301 42.8466 67.1534C46.0699 70.3767 50.4416 72.1875 55 72.1875Z" fill="#FFA700"/>
<path d="M106.541 35.793C107.229 37.6621 106.648 39.7461 105.166 41.0781L95.8633 49.543C96.0996 51.3262 96.2285 53.1523 96.2285 55C96.2285 56.8477 96.0996 58.6738 95.8633 60.457L105.166 68.9219C106.648 70.2539 107.229 72.3379 106.541 74.207C105.596 76.7637 104.457 79.2129 103.146 81.5762L102.137 83.3164C100.719 85.6797 99.1289 87.9141 97.3887 90.0195C96.1211 91.5664 94.0156 92.082 92.125 91.4805L80.1582 87.6777C77.2793 89.8906 74.0996 91.7383 70.7051 93.1348L68.0195 105.402C67.5898 107.357 66.0859 108.904 64.1094 109.227C61.1445 109.721 58.0937 109.979 54.9785 109.979C51.8633 109.979 48.8125 109.721 45.8476 109.227C43.8711 108.904 42.3672 107.357 41.9375 105.402L39.2519 93.1348C35.8574 91.7383 32.6777 89.8906 29.7988 87.6777L17.8535 91.502C15.9629 92.1035 13.8574 91.5664 12.5898 90.041C10.8496 87.9356 9.25976 85.7012 7.84179 83.3379L6.83203 81.5977C5.52148 79.2344 4.38281 76.7852 3.43749 74.2285C2.74999 72.3594 3.33007 70.2754 4.81249 68.9434L14.1152 60.4785C13.8789 58.6738 13.75 56.8477 13.75 55C13.75 53.1523 13.8789 51.3262 14.1152 49.543L4.81249 41.0781C3.33007 39.7461 2.74999 37.6621 3.43749 35.793C4.38281 33.2363 5.52148 30.7871 6.83203 28.4238L7.84179 26.6836C9.25976 24.3203 10.8496 22.0859 12.5898 19.9805C13.8574 18.4336 15.9629 17.918 17.8535 18.5195L29.8203 22.3223C32.6992 20.1094 35.8789 18.2617 39.2734 16.8652L41.959 4.59766C42.3887 2.64258 43.8926 1.0957 45.8691 0.773438C48.834 0.257812 51.8848 0 55 0C58.1152 0 61.166 0.257813 64.1309 0.751953C66.1074 1.07422 67.6113 2.62109 68.041 4.57617L70.7266 16.8438C74.1211 18.2402 77.3008 20.0879 80.1797 22.3008L92.1465 18.498C94.0371 17.8965 96.1426 18.4336 97.4102 19.959C99.1504 22.0645 100.74 24.2988 102.158 26.6621L103.168 28.4023C104.479 30.7656 105.617 33.2148 106.562 35.7715L106.541 35.793ZM55 72.1875C59.5584 72.1875 63.9301 70.3767 67.1534 67.1534C70.3767 63.9301 72.1875 59.5584 72.1875 55C72.1875 50.4416 70.3767 46.0699 67.1534 42.8466C63.9301 39.6233 59.5584 37.8125 55 37.8125C50.4416 37.8125 46.0699 39.6233 42.8466 42.8466C39.6233 46.0699 37.8125 50.4416 37.8125 55C37.8125 59.5584 39.6233 63.9301 42.8466 67.1534C46.0699 70.3767 50.4416 72.1875 55 72.1875Z" fill="#FFA700"/>
<circle cx="55" cy="55" r="34" fill="white"/>
<path d="M26.4102 55.3008C26.4102 55.207 26.418 55.0703 26.4336 54.8906C26.4492 54.7109 26.4805 54.4609 26.5273 54.1406C26.5742 53.8203 26.6367 53.4219 26.7148 52.9453C26.8008 52.4609 26.9062 51.8672 27.0312 51.1641L28.543 42.457C28.7227 41.4492 29.0312 40.75 29.4688 40.3594C29.9062 39.9688 30.4688 39.7734 31.1562 39.7734C31.6172 39.7734 32.0039 39.8438 32.3164 39.9844C32.6367 40.125 32.9062 40.3398 33.125 40.6289C33.3516 40.918 33.5508 41.2812 33.7227 41.7188C33.9023 42.1484 34.0898 42.6484 34.2852 43.2188L36.418 49.8516H36.4648L38.3633 43.9688C38.6055 43.2031 38.8281 42.5508 39.0312 42.0117C39.2422 41.4727 39.4609 41.0391 39.6875 40.7109C39.9219 40.3828 40.1875 40.1445 40.4844 39.9961C40.7812 39.8477 41.1445 39.7734 41.5742 39.7734C42.3398 39.7734 42.9453 39.9688 43.3906 40.3594C43.8438 40.75 44.1602 41.4492 44.3398 42.457L46.2266 53.4023C46.3047 53.8789 46.3633 54.2812 46.4023 54.6094C46.4492 54.9375 46.4727 55.168 46.4727 55.3008C46.4727 55.7773 46.3008 56.2031 45.957 56.5781C45.6133 56.9531 45.168 57.1406 44.6211 57.1406C43.8555 57.1406 43.3242 56.9219 43.0273 56.4844C42.7305 56.0469 42.5117 55.3555 42.3711 54.4102L41.2344 46.9922H41.1875L38.5273 55.5117C38.3477 56.0742 38.0977 56.4883 37.7773 56.7539C37.4648 57.0117 37.0195 57.1406 36.4414 57.1406C35.832 57.1406 35.3711 57.0039 35.0586 56.7305C34.7461 56.4492 34.5039 56.0195 34.332 55.4414L31.6836 46.9922H31.6367L30.4883 54.6211C30.4102 55.1836 30.293 55.6289 30.1367 55.957C29.9883 56.2852 29.8164 56.5391 29.6211 56.7188C29.4336 56.8906 29.2188 57.0039 28.9766 57.0586C28.7344 57.1133 28.4844 57.1406 28.2266 57.1406C27.7109 57.1406 27.2773 56.9531 26.9258 56.5781C26.582 56.2031 26.4102 55.7773 26.4102 55.3008ZM47.2461 50.6133C47.2461 49.6992 47.4102 48.8359 47.7383 48.0234C48.0664 47.2109 48.5195 46.4922 49.0977 45.8672C49.6836 45.2422 50.375 44.75 51.1719 44.3906C51.9766 44.0312 52.8516 43.8516 53.7969 43.8516C54.7109 43.8516 55.5391 44.0234 56.2812 44.3672C57.0234 44.7109 57.6562 45.1797 58.1797 45.7734C58.7109 46.3594 59.125 47.0391 59.4219 47.8125C59.7188 48.5781 59.8672 49.375 59.8672 50.2031C59.8672 50.7969 59.7344 51.2188 59.4688 51.4688C59.2031 51.7188 58.75 51.8438 58.1094 51.8438H51.2773C51.3086 52.4844 51.5742 52.9922 52.0742 53.3672C52.582 53.7422 53.3164 53.9297 54.2773 53.9297C54.7539 53.9297 55.2305 53.8516 55.707 53.6953C56.1914 53.5312 56.6641 53.3203 57.125 53.0625C57.5234 52.8516 57.8516 52.75 58.1094 52.7578C58.5703 52.7578 58.9453 52.9141 59.2344 53.2266C59.5312 53.5312 59.6797 53.9102 59.6797 54.3633C59.6797 54.8086 59.5078 55.2188 59.1641 55.5938C58.8203 55.9688 58.3711 56.2891 57.8164 56.5547C57.2617 56.8203 56.6328 57.0234 55.9297 57.1641C55.2266 57.3125 54.5156 57.3867 53.7969 57.3867C52.8047 57.3867 51.9023 57.2109 51.0898 56.8594C50.2852 56.5078 49.5977 56.0273 49.0273 55.418C48.4648 54.8086 48.0273 54.0938 47.7148 53.2734C47.4023 52.4453 47.2461 51.5586 47.2461 50.6133ZM51.2773 49.2773H56.1172C56.1016 49.0039 56.0273 48.7305 55.8945 48.457C55.7617 48.1836 55.582 47.9414 55.3555 47.7305C55.1289 47.5117 54.8711 47.3398 54.582 47.2148C54.3008 47.082 54.0078 47.0156 53.7031 47.0156C53.3828 47.0156 53.082 47.082 52.8008 47.2148C52.5195 47.3398 52.2656 47.5117 52.0391 47.7305C51.8203 47.9414 51.6406 48.1836 51.5 48.457C51.3672 48.7305 51.293 49.0039 51.2773 49.2773ZM61.0859 55.2422V45.9141C61.0859 45.3516 61.2617 44.9297 61.6133 44.6484C61.9648 44.3672 62.4219 44.2266 62.9844 44.2266H67.6133C68.1445 44.2266 68.5938 44.3594 68.9609 44.625C69.3281 44.8906 69.5117 45.3359 69.5117 45.9609C69.5117 46.5859 69.3242 47.0312 68.9492 47.2969C68.582 47.5547 68.1367 47.6836 67.6133 47.6836H64.8242V55.2422C64.8242 55.7578 64.6484 56.2031 64.2969 56.5781C63.9453 56.9531 63.4961 57.1406 62.9492 57.1406C62.4023 57.1406 61.9531 56.9531 61.6016 56.5781C61.2578 56.2031 61.0859 55.7578 61.0859 55.2422ZM69.8164 50.6133C69.8164 49.668 69.9688 48.7852 70.2734 47.9648C70.5781 47.1367 70.9883 46.4219 71.5039 45.8203C72.0273 45.2109 72.6406 44.7305 73.3438 44.3789C74.0469 44.0273 74.7969 43.8516 75.5938 43.8516C76.3125 43.8516 76.9219 43.9648 77.4219 44.1914C77.9297 44.4102 78.3945 44.7773 78.8164 45.293C79.1836 44.4961 79.7656 44.0938 80.5625 44.0859C81.125 44.0859 81.5781 44.2773 81.9219 44.6602C82.2656 45.043 82.4375 45.4844 82.4375 45.9844V55.2422C82.4375 55.7344 82.2656 56.1758 81.9219 56.5664C81.5781 56.9492 81.125 57.1406 80.5625 57.1406C79.7656 57.1406 79.1836 56.7422 78.8164 55.9453C78.4023 56.4609 77.9414 56.8281 77.4336 57.0469C76.9258 57.2734 76.3125 57.3867 75.5938 57.3867C74.7969 57.3867 74.0469 57.2109 73.3438 56.8594C72.6406 56.5078 72.0273 56.0273 71.5039 55.418C70.9883 54.8086 70.5781 54.0938 70.2734 53.2734C69.9688 52.4453 69.8164 51.5586 69.8164 50.6133ZM73.5547 50.6133C73.5547 51.543 73.7852 52.3047 74.2461 52.8984C74.7148 53.4922 75.3398 53.7891 76.1211 53.7891C76.9023 53.7891 77.5234 53.4922 77.9844 52.8984C78.4531 52.3047 78.6875 51.543 78.6875 50.6133C78.6875 49.6992 78.4609 48.9453 78.0078 48.3516C77.5547 47.75 76.918 47.4492 76.0977 47.4492C75.332 47.4492 74.7148 47.7461 74.2461 48.3398C73.7852 48.9258 73.5547 49.6836 73.5547 50.6133Z" fill="#0F4FA8"/>
<path d="M34.3149 68.7192C34.3149 67.8892 34.4395 67.1299 34.6885 66.4414C34.9375 65.748 35.2915 65.1523 35.7505 64.6543C36.2144 64.1562 36.7734 63.7705 37.4277 63.4971C38.082 63.2188 38.8096 63.0796 39.6104 63.0796C40.0889 63.0796 40.5259 63.1187 40.9214 63.1968C41.3169 63.27 41.6562 63.3799 41.9395 63.5264C42.2275 63.668 42.4473 63.8438 42.5986 64.0537C42.7549 64.2637 42.833 64.5029 42.833 64.7715C42.833 65.0791 42.7329 65.3501 42.5327 65.5845C42.3325 65.814 42.0835 65.9287 41.7856 65.9287C41.6636 65.9287 41.522 65.9019 41.3608 65.8481C41.2046 65.7944 41.0361 65.7383 40.8555 65.6797C40.6748 65.6162 40.4844 65.5576 40.2842 65.5039C40.084 65.4502 39.8789 65.4233 39.6689 65.4233C39.2295 65.4233 38.8389 65.5039 38.4971 65.665C38.1602 65.8213 37.877 66.0435 37.6475 66.3315C37.418 66.6147 37.2397 66.9541 37.1128 67.3496C36.9858 67.7451 36.9224 68.1821 36.9224 68.6606C36.9224 69.1196 36.9834 69.542 37.1055 69.9277C37.2275 70.3135 37.3984 70.6479 37.6182 70.9312C37.8379 71.2095 38.104 71.4268 38.4165 71.583C38.7339 71.7344 39.0879 71.8101 39.4785 71.8101C39.8301 71.8101 40.1206 71.7856 40.3501 71.7368C40.5845 71.688 40.7896 71.6318 40.9653 71.5684C41.1411 71.5 41.2925 71.4414 41.4194 71.3926C41.5513 71.3389 41.6929 71.312 41.8442 71.312C42.1958 71.312 42.4644 71.417 42.6499 71.627C42.8354 71.8369 42.9282 72.1079 42.9282 72.4399C42.9282 72.728 42.8379 72.9868 42.6572 73.2163C42.4766 73.4409 42.23 73.6289 41.9175 73.7803C41.6099 73.9268 41.2534 74.0391 40.8481 74.1172C40.4429 74.2002 40.0156 74.2417 39.5664 74.2417C38.7559 74.2417 38.0259 74.1025 37.3765 73.8242C36.7271 73.541 36.1753 73.1528 35.7212 72.6597C35.272 72.1616 34.9253 71.5757 34.6812 70.9019C34.437 70.228 34.3149 69.5005 34.3149 68.7192ZM42.8623 67.1006C42.8623 66.71 42.9771 66.4316 43.2065 66.2656C43.436 66.0996 43.7168 66.0166 44.0488 66.0166H48.7144C49.0464 66.0166 49.3247 66.0996 49.5493 66.2656C49.7788 66.4316 49.8936 66.71 49.8936 67.1006C49.8936 67.4912 49.7812 67.7695 49.5566 67.9355C49.332 68.0967 49.0513 68.1772 48.7144 68.1772H47.5718V72.9014C47.5718 73.209 47.4644 73.4849 47.2495 73.729C47.0347 73.9683 46.7515 74.0879 46.3999 74.0879C46.0581 74.0879 45.7773 73.9683 45.5576 73.729C45.3379 73.4897 45.228 73.2139 45.228 72.9014V68.1772H44.0488C43.707 68.1772 43.4238 68.0967 43.1992 67.9355C42.9746 67.7695 42.8623 67.4912 42.8623 67.1006ZM50.4062 76.1606V67.1152C50.4062 66.793 50.5161 66.5146 50.7358 66.2803C50.9556 66.0459 51.2339 65.9287 51.5708 65.9287C52.0591 65.9287 52.4253 66.1802 52.6694 66.6831C52.9282 66.3608 53.2139 66.1313 53.5264 65.9946C53.8438 65.853 54.2271 65.7822 54.6763 65.7822C55.1841 65.7822 55.6602 65.8945 56.1045 66.1191C56.5537 66.3438 56.937 66.6465 57.2544 67.0273C57.5767 67.4082 57.8306 67.855 58.0161 68.3677C58.2017 68.8804 58.2944 69.4272 58.2944 70.0083C58.2944 70.6089 58.1992 71.168 58.0088 71.6855C57.8184 72.1982 57.5596 72.645 57.2324 73.0259C56.9102 73.4067 56.5293 73.7046 56.0898 73.9194C55.6504 74.1343 55.1743 74.2417 54.6616 74.2417C54.2612 74.2417 53.9097 74.188 53.6069 74.0806C53.3042 73.978 53.0161 73.812 52.7427 73.5825V76.1606C52.7427 76.4683 52.6328 76.7393 52.4131 76.9736C52.1934 77.2129 51.9126 77.3325 51.5708 77.3325C51.229 77.3325 50.9482 77.2129 50.7285 76.9736C50.5137 76.7393 50.4062 76.4683 50.4062 76.1606ZM52.7427 70.0083C52.7427 70.5894 52.8867 71.0654 53.1748 71.4365C53.4678 71.8076 53.8584 71.9932 54.3467 71.9932C54.835 71.9932 55.2231 71.8076 55.5112 71.4365C55.8042 71.0654 55.9507 70.5894 55.9507 70.0083C55.9507 69.437 55.8091 68.9658 55.5259 68.5947C55.2427 68.2188 54.8447 68.0308 54.332 68.0308C53.8535 68.0308 53.4678 68.2163 53.1748 68.5874C52.8867 68.9536 52.7427 69.4272 52.7427 70.0083ZM58.7485 70.0083C58.7485 69.3979 58.8462 68.8364 59.0415 68.3237C59.2368 67.8062 59.5078 67.3618 59.8545 66.9907C60.2061 66.6147 60.6211 66.3193 61.0996 66.1045C61.5781 65.8896 62.1079 65.7822 62.689 65.7822C63.2603 65.7822 63.7852 65.8872 64.2637 66.0972C64.7471 66.3071 65.1621 66.6001 65.5088 66.9761C65.8604 67.3472 66.1362 67.7915 66.3364 68.3091C66.5366 68.8218 66.6367 69.3882 66.6367 70.0083C66.6367 70.6089 66.5391 71.168 66.3438 71.6855C66.1484 72.1982 65.8774 72.645 65.5308 73.0259C65.189 73.4067 64.7739 73.7046 64.2856 73.9194C63.8022 74.1343 63.27 74.2417 62.689 74.2417C62.1079 74.2417 61.5757 74.1343 61.0923 73.9194C60.6089 73.7046 60.1938 73.4067 59.8472 73.0259C59.5054 72.645 59.2368 72.1982 59.0415 71.6855C58.8462 71.168 58.7485 70.6089 58.7485 70.0083ZM61.085 70.0083C61.085 70.5894 61.229 71.0654 61.5171 71.4365C61.8101 71.8076 62.2007 71.9932 62.689 71.9932C63.1772 71.9932 63.5654 71.8076 63.8535 71.4365C64.1465 71.0654 64.293 70.5894 64.293 70.0083C64.293 69.437 64.1514 68.9658 63.8682 68.5947C63.585 68.2188 63.187 68.0308 62.6743 68.0308C62.1958 68.0308 61.8101 68.2163 61.5171 68.5874C61.229 68.9536 61.085 69.4272 61.085 70.0083ZM67.3984 72.9014V67.1445C67.3984 66.793 67.5059 66.5 67.7207 66.2656C67.9404 66.0312 68.2212 65.9141 68.563 65.9141C68.9048 65.9141 69.1855 66.0312 69.4053 66.2656C69.625 66.5 69.7349 66.7783 69.7349 67.1006V70.5063L72.2837 66.9468C72.4351 66.7368 72.5718 66.5659 72.6938 66.4341C72.8208 66.2974 72.9404 66.1924 73.0527 66.1191C73.1699 66.041 73.2871 65.9873 73.4043 65.958C73.5215 65.9287 73.6484 65.9141 73.7852 65.9141C74.0928 65.9141 74.3442 66.0288 74.5396 66.2583C74.7397 66.4878 74.8398 66.7686 74.8398 67.1006V72.9014C74.8398 73.209 74.7275 73.4849 74.5029 73.729C74.2832 73.9683 74.0049 74.0879 73.668 74.0879C73.3262 74.0879 73.0454 73.9683 72.8257 73.729C72.606 73.4897 72.4961 73.2139 72.4961 72.9014V69.6641L70.0498 73.0112C69.8691 73.2505 69.7129 73.4434 69.5811 73.5898C69.4541 73.7314 69.332 73.8413 69.2148 73.9194C69.1025 73.9927 68.9902 74.0391 68.8779 74.0586C68.7705 74.0781 68.6509 74.0879 68.519 74.0879C68.1479 74.0879 67.8672 73.9731 67.6768 73.7437C67.4912 73.5142 67.3984 73.2334 67.3984 72.9014ZM68.4312 62.9624C68.4312 62.6841 68.4995 62.4546 68.6362 62.2739C68.7778 62.0933 68.9951 62.0029 69.2881 62.0029C69.4883 62.0029 69.6519 62.0737 69.7788 62.2153C69.9106 62.3521 70.0327 62.5547 70.145 62.8232C70.2573 63.082 70.3843 63.2847 70.5259 63.4312C70.6675 63.5776 70.8848 63.6509 71.1777 63.6509C71.4658 63.6509 71.6831 63.5776 71.8296 63.4312C71.9761 63.2847 72.103 63.082 72.2104 62.8232C72.3228 62.5547 72.4424 62.3521 72.5693 62.2153C72.7012 62.0737 72.8672 62.0029 73.0674 62.0029C73.3555 62.0029 73.5703 62.0933 73.7119 62.2739C73.8535 62.4497 73.9243 62.6792 73.9243 62.9624C73.9243 63.2944 73.8511 63.5996 73.7046 63.8779C73.5581 64.1562 73.3628 64.3979 73.1187 64.603C72.8745 64.8081 72.584 64.9717 72.2471 65.0938C71.915 65.2109 71.5586 65.2695 71.1777 65.2695C70.7969 65.2695 70.438 65.2109 70.1011 65.0938C69.769 64.9717 69.4785 64.8081 69.2295 64.603C68.9854 64.3979 68.79 64.1562 68.6436 63.8779C68.502 63.5947 68.4312 63.2896 68.4312 62.9624Z" fill="#0F4FA8"/>
</svg>
